<svg id="Слой_1" data-name="Слой 1" xmlns="http://www.w3.org/2000/svg" viewBox="0 0 133.1 41.91"><defs><style>.cls-1{fill:none;stroke:#010101;stroke-miterlimit:10;stroke-width:0.95px;}.cls-2{font-size:18px;font-family:Onest-ExtraLight, Onest;font-weight:200;}.cls-2,.cls-3{fill:#010101;}</style></defs><rect class="cls-1" x="81.37" y="0.48" width="51.25" height="23.45" rx="11.72"/><text class="cls-2" transform="translate(87.85 18.59)">Stat</text><path class="cls-3" d="M6.77,45.15V13.63H19.46A20.72,20.72,0,0,1,24,14.1a11.6,11.6,0,0,1,3.9,1.58,7.7,7.7,0,0,1,2.74,3.09,11.29,11.29,0,0,1,1,5.05,10.51,10.51,0,0,1-.76,4.1A8.23,8.23,0,0,1,28.63,31a10.65,10.65,0,0,1-3.52,2l7,12.11H24.93L18.79,34.06H13.14V45.15Zm6.37-16.74H19a11.57,11.57,0,0,0,2.52-.25,5.62,5.62,0,0,0,1.95-.78A3.79,3.79,0,0,0,24.78,26a4.66,4.66,0,0,0,.46-2.18,3.81,3.81,0,0,0-.69-2.56,3.92,3.92,0,0,0-2-1.29,11.38,11.38,0,0,0-3.1-.38H13.14Z" transform="translate(-6.77 -3.54)"/><path class="cls-3" d="M43.54,45.46A10.93,10.93,0,0,1,40.45,45a7.74,7.74,0,0,1-2.65-1.31A6.28,6.28,0,0,1,36,41.5a7,7,0,0,1-.67-3.12,6.78,6.78,0,0,1,1-3.85,6.22,6.22,0,0,1,2.63-2.2,12.8,12.8,0,0,1,3.81-1A35.91,35.91,0,0,1,47.19,31h3.38a5.24,5.24,0,0,0-.47-2.29,3.47,3.47,0,0,0-1.4-1.56,4.63,4.63,0,0,0-2.4-.55,6.68,6.68,0,0,0-1.8.24,4.44,4.44,0,0,0-1.45.69,2,2,0,0,0-.76,1.16H36a7.45,7.45,0,0,1,1.25-3.36,7.88,7.88,0,0,1,2.45-2.29,11.31,11.31,0,0,1,3.22-1.32,15.61,15.61,0,0,1,3.63-.42c3.41,0,5.94,1,7.57,2.92s2.45,4.69,2.45,8.25V45.15H50.93l-.09-3a7.06,7.06,0,0,1-2.52,2.27,8.66,8.66,0,0,1-2.69.89A15.86,15.86,0,0,1,43.54,45.46ZM45,40.52a6.41,6.41,0,0,0,2.85-.63,5.26,5.26,0,0,0,2-1.69,4.08,4.08,0,0,0,.76-2.4v-.58H46.34a17.49,17.49,0,0,0-1.8.09,6.92,6.92,0,0,0-1.56.33,2.24,2.24,0,0,0-1.09.78,2.3,2.3,0,0,0-.4,1.42,2.38,2.38,0,0,0,.47,1.5,2.76,2.76,0,0,0,1.27.89A5.11,5.11,0,0,0,45,40.52Z" transform="translate(-6.77 -3.54)"/><path class="cls-3" d="M85.71,17v-.1l-6.56,12L70.74,13.63H62.28V45.15h6.36v-23l9.09,16h2.58L88,24.36A13.05,13.05,0,0,1,85.71,17Z" transform="translate(-6.77 -3.54)"/><path class="cls-3" d="M89.25,25.89V45.15h6.37V29.68A13.15,13.15,0,0,1,89.25,25.89Z" transform="translate(-6.77 -3.54)"/></svg>