<svg id="Слой_1" data-name="Слой 1" xmlns="http://www.w3.org/2000/svg" viewBox="0 0 46.45 41.79"><defs><style>.cls-1{fill:none;stroke:#010101;stroke-miterlimit:10;stroke-width:4.06px;}.cls-2{fill:#010101;}</style></defs><path class="cls-1" d="M49.56,10.88c-1.3.51-38.11,16-38.11,16s-1.78.61-1.64,1.73,1.6,1.64,1.6,1.64l9.47,3.19s2.86,9.38,3.43,11.16,1,1.83,1,1.83a1.06,1.06,0,0,0,1-.14l6.12-5.58L42,48.06a2.48,2.48,0,0,0,3.51-1.22l6.58-33.68C52.66,10.55,50.93,10.34,49.56,10.88Z" transform="translate(-7.77 -8.61)"/><path class="cls-2" d="M44.89,19c0-.8-1.06-.23-1.06-.23L20.69,33.14s3,9.71,3.62,11.5,1.33,2.08,1.33,2.08l1.73-11s16.35-15.25,17.06-15.9S44.89,19,44.89,19Z" transform="translate(-7.77 -8.61)"/></svg>