<svg id="Слой_1" data-name="Слой 1" xmlns="http://www.w3.org/2000/svg" viewBox="0 0 67.1 35.92"><defs><style>.cls-1{fill:#010101;}</style></defs><path class="cls-1" d="M69.59,37.79c5.35,4.76,6.46,6.45,6.65,6.74,2.22,3.52-2.46,3.95-2.46,3.95H63.91a8.77,8.77,0,0,1-4.45-1.33c-3.35-2.19-6.85-6.44-9.31-5.7-2.07.61-2,3.41-2,5.79,0,.86-.73,1.24-2.39,1.24H42.62c-5.4,0-11.27-1.82-17.12-7.93C17.23,31.91,10,14.5,10,14.5s-.43-.88,0-1.41,2-.52,2-.52h9.56a4.68,4.68,0,0,1,1.55.62,2.85,2.85,0,0,1,.83,1.09A46.79,46.79,0,0,0,27.58,23c4,6.6,5.85,6.77,7.21,6.06,2-1,1.34-8,1.34-8s.09-3-1-4.36a5.17,5.17,0,0,0-3-1.68c-.53-.07.37-1,1.51-1.55,1.54-.68,3.62-.86,7.22-.82a17.9,17.9,0,0,1,4.7.44c3.3.76,2.48,2.77,2.48,9.83,0,2.26-.31,5.43,1.39,6.49.74.45,3.26,1,7.74-6.27a46.86,46.86,0,0,0,3.82-9.18,2.79,2.79,0,0,1,.89-.94,1.72,1.72,0,0,1,1.3-.31l10.08-.06c1.67,0,3.24,0,3.51,1,.39,1.41-1.23,6.24-5.35,11.48C64.73,33.62,64,32.82,69.59,37.79Z" transform="translate(-9.79 -12.56)"/></svg>