<svg id="Слой_1" data-name="Слой 1" xmlns="http://www.w3.org/2000/svg" viewBox="0 0 51.1 38.23"><defs><style>.cls-1{fill:#010101;}</style></defs><path class="cls-1" d="M61.4,16.89a6.35,6.35,0,0,0-5.35-5.1,131.19,131.19,0,0,0-38.23,0,6.36,6.36,0,0,0-5.35,5.1,74.48,74.48,0,0,0-1,12.61,74.48,74.48,0,0,0,1,12.61,6.36,6.36,0,0,0,5.35,5.1,135.49,135.49,0,0,0,19.12,1.4,132.25,132.25,0,0,0,19.11-1.4,6.35,6.35,0,0,0,5.35-5.1A87.69,87.69,0,0,0,62.55,29.5,72.15,72.15,0,0,0,61.4,16.89ZM31.84,38.42V20.58L47.13,29.5Z" transform="translate(-11.45 -10.39)"/></svg>